<svg id="svg" version="1.1" xmlns="http://www.w3.org/2000/svg" xmlns:xlink="http://www.w3.org/1999/xlink" width="400" height="400" viewBox="0, 0, 400,400"><g id="svgg"><path id="path0" d="M317.938 99.100 C 317.904 99.265,317.859 135.250,317.838 179.067 C 317.817 222.883,317.650 258.883,317.467 259.067 C 317.283 259.250,269.678 259.454,211.677 259.519 L 106.221 259.639 97.210 265.072 C 92.255 268.060,87.610 270.945,86.888 271.482 L 85.577 272.458 85.688 304.129 L 85.800 335.800 86.975 338.200 C 89.074 342.485,93.125 345.733,97.683 346.784 C 98.795 347.041,141.504 347.184,218.898 347.190 L 338.395 347.200 338.399 223.000 L 338.402 98.800 328.201 98.800 C 322.591 98.800,317.972 98.935,317.938 99.100 M184.702 282.300 C 188.923 296.106,196.800 322.480,196.800 322.808 C 196.800 323.079,194.904 323.184,191.313 323.111 L 185.826 323.000 185.281 321.000 C 184.981 319.900,184.382 317.785,183.951 316.300 L 183.166 313.600 176.802 313.600 L 170.438 313.600 170.081 314.900 C 169.884 315.615,169.309 317.775,168.801 319.700 L 167.879 323.200 162.539 323.200 C 158.411 323.200,157.200 323.081,157.200 322.677 C 157.200 322.240,168.830 281.623,169.391 280.100 C 169.529 279.726,171.370 279.600,176.725 279.600 L 183.876 279.600 184.702 282.300 M207.208 286.300 C 208.805 289.985,210.588 294.072,211.171 295.381 L 212.232 297.762 216.195 288.681 L 220.159 279.600 225.480 279.600 C 228.543 279.600,230.800 279.760,230.800 279.977 C 230.800 280.345,222.258 296.980,219.158 302.649 L 217.600 305.498 217.600 314.349 L 217.600 323.200 212.000 323.200 L 206.400 323.200 206.400 314.594 L 206.400 305.988 204.044 301.294 C 202.749 298.712,199.779 293.014,197.444 288.631 C 192.139 278.672,192.005 279.600,198.753 279.600 L 204.305 279.600 207.208 286.300 M256.318 286.800 C 257.486 290.650,260.391 300.370,262.774 308.400 L 267.107 323.000 261.698 323.112 C 258.724 323.173,256.219 323.152,256.131 323.065 C 256.044 322.978,255.394 320.857,254.686 318.353 L 253.400 313.800 247.000 313.800 L 240.600 313.800 239.400 318.400 L 238.200 323.000 232.669 323.111 C 227.527 323.215,227.154 323.173,227.349 322.511 C 229.071 316.697,234.472 297.939,236.191 291.800 C 237.423 287.400,238.701 282.851,239.030 281.691 L 239.628 279.582 246.911 279.691 L 254.195 279.800 256.318 286.800 M174.650 296.104 C 173.610 300.557,172.666 304.515,172.552 304.900 C 172.365 305.536,172.735 305.600,176.573 305.600 C 180.005 305.600,180.800 305.491,180.800 305.018 C 180.800 304.384,176.874 288.340,176.668 288.135 C 176.598 288.065,175.690 291.651,174.650 296.104 M246.732 288.200 C 246.469 288.630,242.800 304.471,242.800 305.176 C 242.800 305.448,244.310 305.600,247.000 305.600 C 249.310 305.600,251.196 305.465,251.192 305.300 C 251.159 304.118,246.925 287.885,246.732 288.200 " stroke="none" fill="#346c7c" fill-rule="evenodd"></path><path id="path1" d="M153.540 99.900 C 153.507 100.065,153.462 125.715,153.440 156.900 L 153.400 213.600 165.498 213.600 L 177.596 213.600 177.698 175.700 L 177.800 137.800 178.665 140.600 C 179.566 143.518,188.983 178.898,193.198 195.200 C 194.534 200.370,195.971 205.860,196.389 207.400 C 196.808 208.940,197.348 210.965,197.591 211.900 L 198.031 213.600 211.342 213.600 L 224.654 213.600 228.362 199.500 C 230.402 191.745,234.575 175.680,237.636 163.800 C 240.697 151.920,243.369 141.840,243.574 141.400 C 243.807 140.899,243.956 154.248,243.973 177.100 L 244.000 213.600 257.400 213.600 L 270.800 213.600 270.800 156.600 L 270.800 99.600 253.600 99.600 C 244.140 99.600,236.400 99.689,236.400 99.797 C 236.400 99.905,234.433 107.420,232.030 116.497 C 229.626 125.574,225.765 140.200,223.449 149.000 C 216.938 173.746,212.418 190.516,212.199 190.734 C 211.871 191.063,212.147 192.130,200.390 145.100 L 189.016 99.600 171.308 99.600 C 161.569 99.600,153.573 99.735,153.540 99.900 M168.848 282.691 C 164.995 295.875,157.600 322.073,157.600 322.538 C 157.600 322.682,159.903 322.800,162.718 322.800 L 167.835 322.800 168.957 318.200 L 170.079 313.600 176.745 313.600 L 183.410 313.600 184.170 316.300 C 184.588 317.785,185.177 319.855,185.480 320.900 L 186.031 322.800 191.262 322.800 C 196.478 322.800,196.493 322.797,196.299 321.900 C 196.193 321.405,194.652 316.230,192.874 310.400 C 191.097 304.570,188.328 295.390,186.722 290.000 L 183.800 280.200 176.720 280.091 L 169.639 279.982 168.848 282.691 M193.600 280.315 C 193.600 280.698,195.275 283.975,202.044 296.834 L 206.800 305.869 206.800 314.334 L 206.800 322.800 212.000 322.800 L 217.200 322.800 217.200 314.339 L 217.200 305.878 220.850 298.839 C 222.858 294.967,225.828 289.264,227.450 286.164 C 229.073 283.064,230.400 280.409,230.400 280.264 C 230.400 280.119,228.096 280.000,225.281 280.000 L 220.162 280.000 216.336 288.900 C 214.231 293.795,212.358 297.800,212.172 297.800 C 211.987 297.800,210.113 293.840,208.010 289.000 L 204.184 280.200 198.892 280.088 C 195.982 280.027,193.600 280.129,193.600 280.315 M239.871 280.300 C 239.697 280.597,230.472 312.461,228.788 318.581 C 228.307 320.330,227.823 321.995,227.714 322.281 C 227.557 322.690,228.617 322.800,232.718 322.800 L 237.921 322.800 239.045 318.191 L 240.169 313.582 246.945 313.691 L 253.722 313.800 254.973 318.200 L 256.225 322.600 261.543 322.712 C 266.486 322.816,266.846 322.773,266.641 322.112 C 265.620 318.816,255.461 285.152,254.808 282.900 L 253.966 280.000 247.007 280.000 C 243.179 280.000,239.968 280.135,239.871 280.300 M179.108 296.302 C 180.267 301.306,181.212 305.535,181.208 305.700 C 181.197 306.105,172.500 306.085,172.249 305.679 C 172.087 305.416,175.466 290.337,176.234 287.900 C 176.700 286.418,177.065 287.486,179.108 296.302 M248.407 292.700 C 251.212 304.301,251.492 305.574,251.283 305.784 C 250.794 306.273,242.400 306.005,242.390 305.500 C 242.371 304.498,246.547 287.200,246.808 287.200 C 246.956 287.200,247.675 289.675,248.407 292.700 " stroke="none" fill="#f9fbfb" fill-rule="evenodd"></path><path id="path2" d="M106.302 156.215 L 106.403 259.639 211.768 259.519 C 269.719 259.454,317.270 259.263,317.438 259.096 C 317.605 258.928,317.751 215.008,317.762 161.496 L 317.782 64.200 316.862 61.899 C 315.611 58.770,313.023 56.036,309.732 54.366 L 307.042 53.000 206.621 52.896 L 106.200 52.792 106.302 156.215 M189.095 99.700 C 189.311 99.975,194.488 120.180,200.599 144.600 C 206.711 169.020,211.834 189.235,211.984 189.523 C 212.276 190.082,214.359 182.814,218.611 166.400 C 220.064 160.790,222.239 152.420,223.445 147.800 C 225.664 139.303,234.781 105.174,235.869 101.296 L 236.459 99.192 253.730 99.296 L 271.000 99.400 271.101 156.492 L 271.203 213.584 270.301 213.804 C 269.806 213.925,263.730 213.973,256.800 213.912 L 244.200 213.800 244.000 178.000 C 243.807 143.521,243.775 142.281,243.119 144.400 C 242.169 147.465,233.208 181.658,228.813 198.988 C 226.806 206.901,224.947 213.513,224.682 213.681 C 224.065 214.074,198.745 214.086,198.163 213.694 C 197.791 213.443,189.825 184.187,186.593 171.200 C 185.429 166.526,179.024 142.481,178.441 140.600 C 178.204 139.837,178.045 152.290,178.005 174.800 C 177.970 194.270,177.819 211.010,177.670 212.000 L 177.400 213.800 165.400 213.800 L 153.400 213.800 153.297 157.000 C 153.241 125.760,153.280 99.975,153.385 99.700 C 153.533 99.310,157.456 99.200,171.138 99.200 C 184.713 99.200,188.791 99.314,189.095 99.700 " stroke="none" fill="#3ca3cb" fill-rule="evenodd"></path><path id="path3" d="M103.956 54.111 C 102.365 55.180,88.914 63.384,84.000 66.283 C 75.622 71.226,71.639 73.616,66.810 76.600 L 61.631 79.800 61.615 183.287 C 61.601 281.678,61.634 286.763,62.300 286.527 C 62.685 286.391,64.045 285.579,65.323 284.721 C 66.600 283.864,68.068 283.002,68.584 282.806 C 70.855 281.943,84.863 273.220,86.206 271.833 C 86.650 271.375,91.370 268.390,96.695 265.200 L 106.378 259.400 106.389 156.300 C 106.398 69.617,106.313 53.200,105.856 53.200 C 105.557 53.200,104.702 53.610,103.956 54.111 M153.461 99.500 C 153.293 99.773,167.016 99.767,182.800 99.488 C 186.210 99.428,181.046 99.338,171.324 99.289 C 161.602 99.240,153.564 99.335,153.461 99.500 M253.499 99.498 L 270.797 99.608 270.901 156.604 L 271.004 213.600 271.002 156.500 L 271.000 99.400 253.600 99.393 L 236.200 99.387 253.499 99.498 M191.611 109.833 C 191.633 110.557,195.128 123.789,195.164 123.282 C 195.206 122.680,192.027 109.894,191.772 109.638 C 191.677 109.544,191.605 109.632,191.611 109.833 M153.389 160.800 C 153.389 176.310,153.439 182.655,153.500 174.900 C 153.561 167.145,153.561 154.455,153.500 146.700 C 153.439 138.945,153.389 145.290,153.389 160.800 M226.433 136.233 C 226.175 137.259,226.039 138.172,226.131 138.264 C 226.222 138.356,226.509 137.592,226.767 136.567 C 227.025 135.541,227.161 134.628,227.069 134.536 C 226.978 134.444,226.691 135.208,226.433 136.233 M177.708 174.400 L 177.792 211.000 177.996 175.000 C 178.108 155.200,178.070 138.730,177.912 138.400 C 177.754 138.070,177.662 154.270,177.708 174.400 M243.273 142.200 C 242.631 144.391,242.707 144.886,243.430 143.221 C 243.759 142.462,243.964 141.562,243.885 141.221 C 243.806 140.879,243.531 141.320,243.273 142.200 M224.235 144.635 C 223.867 146.101,223.640 147.374,223.731 147.464 C 223.821 147.555,224.197 146.430,224.565 144.965 C 224.933 143.499,225.160 142.226,225.069 142.136 C 224.979 142.045,224.603 143.170,224.235 144.635 M241.435 149.035 C 241.067 150.501,240.840 151.774,240.931 151.864 C 241.021 151.955,241.397 150.830,241.765 149.365 C 242.133 147.899,242.360 146.626,242.269 146.536 C 242.179 146.445,241.803 147.570,241.435 149.035 M222.235 152.235 C 221.867 153.701,221.640 154.974,221.731 155.064 C 221.821 155.155,222.197 154.030,222.565 152.565 C 222.933 151.099,223.160 149.826,223.069 149.736 C 222.979 149.645,222.603 150.770,222.235 152.235 M187.865 175.991 C 187.996 176.757,188.344 178.107,188.639 178.991 C 189.149 180.525,189.162 180.535,188.935 179.209 C 188.804 178.443,188.456 177.093,188.161 176.209 C 187.651 174.675,187.638 174.665,187.865 175.991 M209.236 179.912 C 209.182 180.680,211.324 189.034,211.460 188.587 C 211.525 188.374,211.059 186.220,210.425 183.800 C 209.791 181.380,209.256 179.630,209.236 179.912 M189.200 180.948 C 189.200 181.648,190.924 188.010,191.073 187.860 C 191.249 187.685,189.655 181.123,189.366 180.833 C 189.275 180.742,189.200 180.793,189.200 180.948 M211.606 189.900 C 211.603 190.395,211.780 190.800,212.000 190.800 C 212.501 190.800,212.501 190.376,212.000 189.600 C 211.686 189.115,211.611 189.172,211.606 189.900 M191.850 191.200 C 191.990 191.970,192.261 192.960,192.454 193.400 C 192.694 193.949,192.724 193.761,192.550 192.800 C 192.410 192.030,192.139 191.040,191.946 190.600 C 191.706 190.051,191.676 190.239,191.850 191.200 M227.837 201.437 C 227.249 203.783,226.842 205.775,226.931 205.865 C 227.021 205.954,227.575 204.109,228.163 201.763 C 228.751 199.417,229.158 197.425,229.069 197.335 C 228.979 197.246,228.425 199.091,227.837 201.437 M225.636 209.836 C 225.158 211.742,224.841 213.374,224.931 213.464 C 225.021 213.554,225.486 212.069,225.964 210.164 C 226.442 208.258,226.759 206.626,226.669 206.536 C 226.579 206.446,226.114 207.931,225.636 209.836 M159.525 213.899 C 162.893 213.966,168.293 213.966,171.525 213.899 C 174.756 213.832,172.000 213.777,165.400 213.777 C 158.800 213.777,156.156 213.832,159.525 213.899 M204.925 213.899 C 208.624 213.966,214.564 213.965,218.125 213.899 C 221.686 213.833,218.660 213.779,211.400 213.779 C 204.140 213.779,201.226 213.833,204.925 213.899 M250.925 213.899 C 254.624 213.966,260.564 213.965,264.125 213.899 C 267.686 213.833,264.660 213.779,257.400 213.779 C 250.140 213.779,247.226 213.833,250.925 213.899 " stroke="none" fill="#7cc3db" fill-rule="evenodd"></path><path id="path4" d="M169.467 279.867 C 169.320 280.013,169.203 280.328,169.206 280.567 C 169.210 280.811,169.355 280.774,169.541 280.482 C 169.795 280.082,171.475 279.990,176.897 280.082 C 180.763 280.147,183.841 280.065,183.739 279.900 C 183.509 279.529,169.836 279.497,169.467 279.867 M193.232 280.300 C 193.250 280.718,193.344 280.799,193.465 280.500 C 193.612 280.136,195.072 280.000,198.821 280.000 L 203.974 280.000 204.571 281.100 C 204.899 281.705,205.175 282.015,205.184 281.789 C 205.193 281.563,204.920 280.978,204.577 280.489 C 203.715 279.258,193.177 279.083,193.232 280.300 M225.338 279.899 C 229.741 280.007,230.443 280.112,230.243 280.633 C 230.110 280.979,230.180 281.136,230.405 280.997 C 232.060 279.974,230.668 279.602,225.500 279.687 L 220.200 279.774 225.338 279.899 M239.867 279.891 C 239.761 280.061,242.837 280.147,246.703 280.082 C 252.111 279.991,253.814 280.083,254.096 280.482 C 254.377 280.881,254.424 280.863,254.297 280.400 C 254.119 279.744,240.261 279.255,239.867 279.891 M205.628 283.400 C 205.628 283.620,205.886 284.250,206.200 284.800 C 206.514 285.350,206.772 285.620,206.772 285.400 C 206.772 285.180,206.514 284.550,206.200 284.000 C 205.886 283.450,205.628 283.180,205.628 283.400 M195.600 285.200 C 196.049 286.080,196.506 286.800,196.616 286.800 C 196.726 286.800,196.449 286.080,196.000 285.200 C 195.551 284.320,195.094 283.600,194.984 283.600 C 194.874 283.600,195.151 284.320,195.600 285.200 M206.828 286.200 C 206.828 286.420,207.086 287.050,207.400 287.600 C 207.714 288.150,207.972 288.420,207.972 288.200 C 207.972 287.980,207.714 287.350,207.400 286.800 C 207.086 286.250,206.828 285.980,206.828 286.200 M225.400 290.000 C 224.624 291.540,224.080 292.800,224.190 292.800 C 224.300 292.800,225.024 291.540,225.800 290.000 C 226.576 288.460,227.120 287.200,227.010 287.200 C 226.900 287.200,226.176 288.460,225.400 290.000 M256.461 288.400 C 256.461 288.730,256.703 289.630,257.000 290.400 C 257.297 291.170,257.539 291.530,257.539 291.200 C 257.539 290.870,257.297 289.970,257.000 289.200 C 256.703 288.430,256.461 288.070,256.461 288.400 M208.028 289.000 C 208.028 289.220,208.286 289.850,208.600 290.400 C 208.914 290.950,209.172 291.220,209.172 291.000 C 209.172 290.780,208.914 290.150,208.600 289.600 C 208.286 289.050,208.028 288.780,208.028 289.000 M209.228 291.800 C 209.228 292.020,209.486 292.650,209.800 293.200 C 210.114 293.750,210.372 294.020,210.372 293.800 C 210.372 293.580,210.114 292.950,209.800 292.400 C 209.486 291.850,209.228 291.580,209.228 291.800 M257.661 292.400 C 257.661 292.730,257.903 293.630,258.200 294.400 C 258.497 295.170,258.739 295.530,258.739 295.200 C 258.739 294.870,258.497 293.970,258.200 293.200 C 257.903 292.430,257.661 292.070,257.661 292.400 M188.456 295.600 C 188.456 295.930,188.611 296.560,188.800 297.000 C 189.017 297.504,189.144 297.578,189.144 297.200 C 189.144 296.870,188.989 296.240,188.800 295.800 C 188.583 295.296,188.456 295.222,188.456 295.600 M220.400 299.600 C 219.951 300.480,219.674 301.200,219.784 301.200 C 219.894 301.200,220.351 300.480,220.800 299.600 C 221.249 298.720,221.526 298.000,221.416 298.000 C 221.306 298.000,220.849 298.720,220.400 299.600 M189.656 299.600 C 189.656 299.930,189.811 300.560,190.000 301.000 C 190.217 301.504,190.344 301.578,190.344 301.200 C 190.344 300.870,190.189 300.240,190.000 299.800 C 189.783 299.296,189.656 299.222,189.656 299.600 M173.022 301.022 C 172.872 301.825,172.828 302.562,172.926 302.660 C 173.024 302.757,173.227 302.181,173.378 301.378 C 173.528 300.575,173.572 299.838,173.474 299.740 C 173.376 299.643,173.173 300.219,173.022 301.022 M190.461 302.400 C 190.461 302.730,190.703 303.630,191.000 304.400 C 191.297 305.170,191.539 305.530,191.539 305.200 C 191.539 304.870,191.297 303.970,191.000 303.200 C 190.703 302.430,190.461 302.070,190.461 302.400 M242.454 304.900 L 242.400 306.000 246.776 306.000 C 249.183 306.000,251.237 305.865,251.339 305.700 C 251.442 305.535,249.577 305.456,247.194 305.524 C 242.941 305.647,242.859 305.632,242.685 304.724 C 242.528 303.902,242.503 303.921,242.454 304.900 M180.800 305.000 C 180.800 305.722,172.618 305.904,172.263 305.190 C 172.151 304.964,172.106 305.010,172.163 305.290 C 172.363 306.286,181.200 306.211,181.200 305.213 C 181.200 304.766,181.110 304.400,181.000 304.400 C 180.890 304.400,180.800 304.670,180.800 305.000 M206.588 314.200 L 206.600 323.000 212.000 323.000 L 217.400 323.000 217.412 314.200 L 217.425 305.400 217.304 314.100 L 217.184 322.800 212.000 322.800 L 206.816 322.800 206.696 314.100 L 206.575 305.400 206.588 314.200 M191.661 306.400 C 191.661 306.730,191.903 307.630,192.200 308.400 C 192.497 309.170,192.739 309.530,192.739 309.200 C 192.739 308.870,192.497 307.970,192.200 307.200 C 191.903 306.430,191.661 306.070,191.661 306.400 M160.629 310.229 C 160.481 310.815,160.438 311.372,160.532 311.466 C 160.627 311.560,160.824 311.158,160.971 310.571 C 161.119 309.985,161.162 309.428,161.068 309.334 C 160.973 309.240,160.776 309.642,160.629 310.229 M159.829 313.029 C 159.681 313.615,159.638 314.172,159.732 314.266 C 159.827 314.360,160.024 313.958,160.171 313.371 C 160.319 312.785,160.362 312.228,160.268 312.134 C 160.173 312.040,159.976 312.442,159.829 313.029 M239.467 316.467 C 239.091 318.034,238.855 319.389,238.944 319.477 C 239.032 319.565,239.417 318.361,239.800 316.800 C 240.183 315.239,240.418 313.885,240.323 313.790 C 240.228 313.695,239.843 314.899,239.467 316.467 M159.029 315.829 C 158.881 316.415,158.838 316.972,158.932 317.066 C 159.027 317.160,159.224 316.758,159.371 316.171 C 159.519 315.585,159.562 315.028,159.468 314.934 C 159.373 314.840,159.176 315.242,159.029 315.829 M158.229 318.629 C 158.081 319.215,158.038 319.772,158.132 319.866 C 158.227 319.960,158.424 319.558,158.571 318.971 C 158.719 318.385,158.762 317.828,158.668 317.734 C 158.573 317.640,158.376 318.042,158.229 318.629 M157.452 321.300 C 156.937 323.223,156.883 323.205,162.700 323.113 L 168.200 323.025 162.871 322.901 L 157.542 322.776 157.803 321.588 C 158.106 320.208,157.810 319.965,157.452 321.300 M238.000 322.155 C 238.000 322.778,237.490 322.832,232.637 322.722 C 229.688 322.655,227.358 322.735,227.461 322.900 C 227.860 323.543,238.008 323.245,238.262 322.583 C 238.392 322.243,238.387 321.853,238.249 321.716 C 238.112 321.579,238.000 321.776,238.000 322.155 M185.763 322.490 C 185.947 323.404,196.809 323.425,196.768 322.511 C 196.750 322.092,196.654 322.005,196.535 322.300 C 196.279 322.934,186.175 323.019,185.863 322.390 C 185.751 322.165,185.706 322.210,185.763 322.490 M255.999 322.900 C 256.000 323.065,258.565 323.168,261.700 323.128 C 267.528 323.054,266.848 322.895,259.899 322.706 C 257.754 322.648,255.999 322.735,255.999 322.900 " stroke="none" fill="#a6bcc6" fill-rule="evenodd"></path></g></svg>